<svg xmlns="http://www.w3.org/2000/svg" viewBox="0 0 620 250" >
	<g>
		<polygon fill="#435363" points="20,20 30,15 40,20 40,32 30,37 20,32" />
		<polygon fill="#435363" points="40,40 50,35 60,40 60,52 50,57 40,52" />
		<polygon fill="#435363" points="60,20 70,15 80,20 80,32 70,37 60,32" />
		<polygon fill="#435363" points="80,40 90,35 100,40 100,52 90,57 80,52" />
		<polygon fill="#435363" points="100,20 110,15 120,20 120,32 110,37 100,32" />
		<polygon fill="#435363" points="120,40 130,35 140,40 140,52 130,57 120,52" />
		<polygon fill="#435363" points="140,20 150,15 160,20 160,32 150,37 140,32" />
		<polygon fill="#435363" points="160,40 170,35 180,40 180,52 170,57 160,52" />
		<polygon fill="#435363" points="180,20 190,15 200,20 200,32 190,37 180,32" />
		<polygon fill="#435363" points="200,40 210,35 220,40 220,52 210,57 200,52" />
		<polygon fill="#435363" points="220,20 230,15 240,20 240,32 230,37 220,32" />
		<polygon fill="#435363" points="240,40 250,35 260,40 260,52 250,57 240,52" />
		<polygon fill="#435363" points="260,20 270,15 280,20 280,32 270,37 260,32" />
		<polygon fill="#435363" points="280,40 290,35 300,40 300,52 290,57 280,52" />
		<polygon fill="#435363" points="300,20 310,15 320,20 320,32 310,37 300,32" />
		<polygon fill="#435363" points="320,40 330,35 340,40 340,52 330,57 320,52" />
		<polygon fill="#435363" points="340,20 350,15 360,20 360,32 350,37 340,32" />
		<polygon fill="#435363" points="360,40 370,35 380,40 380,52 370,57 360,52" />
		<polygon fill="#435363" points="380,20 390,15 400,20 400,32 390,37 380,32" />
		<polygon fill="#435363" points="400,40 410,35 420,40 420,52 410,57 400,52" />
		<polygon fill="#435363" points="420,20 430,15 440,20 440,32 430,37 420,32" />
		<polygon fill="#435363" points="440,40 450,35 460,40 460,52 450,57 440,52" />
		<polygon fill="#435363" points="460,20 470,15 480,20 480,32 470,37 460,32" />
		<polygon fill="#435363" points="20,60 30,55 40,60 40,72 30,77 20,72" />
		<polygon fill="#435363" points="40,80 50,75 60,80 60,92 50,97 40,92" />
		<polygon fill="#435363" points="60,60 70,55 80,60 80,72 70,77 60,72" />
		<polygon fill="#435363" points="80,80 90,75 100,80 100,92 90,97 80,92" />
		<polygon fill="#435363" points="100,60 110,55 120,60 120,72 110,77 100,72" />
		<polygon fill="#435363" points="80,80 90,75 100,80 100,92 90,97 80,92" />


		<polygon fill="#435363" points="140,60 150,55 160,60 160,72 150,77 140,72" >
		</polygon>




		<polygon fill="#435363" points="120,80 130,75 140,80 140,92 130,97 120,92" />




		<polygon fill="#435363" points="180,60 190,55 200,60 200,72 190,77 180,72" />




		<polygon fill="#435363" points="120,80 130,75 140,80 140,92 130,97 120,92" />




		<polygon fill="#435363" points="220,60 230,55 240,60 240,72 230,77 220,72" />




		<polygon fill="#435363" points="160,80 170,75 180,80 180,92 170,97 160,92" />



		<polygon fill="#435363" points="260,60 270,55 280,60 280,72 270,77 260,72" />




		<polygon fill="#435363" points="200,80 210,75 220,80 220,92 210,97 200,92" />





		<polygon fill="#435363" points="300,60 310,55 320,60 320,72 310,77 300,72" />





		<polygon fill="#435363" points="240,80 250,75 260,80 260,92 250,97 240,92" />
		<polygon fill="#435363" points="340,60 350,55 360,60 360,72 350,77 340,72" />
		<polygon fill="#435363" points="280,80 290,75 300,80 300,92 290,97 280,92" />
		<polygon fill="#435363" points="380,60 390,55 400,60 400,72 390,77 380,72" />
		<polygon fill="#435363" points="320,80 330,75 340,80 340,92 330,97 320,92" />
		<polygon fill="#435363" points="420,60 430,55 440,60 440,72 430,77 420,72" />
		<polygon fill="#435363" points="360,80 370,75 380,80 380,92 370,97 360,92" />
		<polygon fill="#435363" points="460,60 470,55 480,60 480,72 470,77 460,72" />
		<polygon fill="#435363" points="400,80 410,75 420,80 420,92 410,97 400,92" />
		<polygon fill="#435363" points="440,80 450,75 460,80 460,92 450,97 440,92" />
		<polygon fill="#435363" points="20,100 30,95 40,100 40,112 30,117 20,112" />
		<polygon fill="#435363" points="40,120 50,115 60,120 60,132 50,137 40,132" />
		<polygon fill="#435363" points="60,100 70,95 80,100 80,112 70,117 60,112" />
		<polygon fill="#435363" points="80,120 90,115 100,120 100,132 90,137 80,132" />
		<polygon fill="#435363" points="100,100 110,95 120,100 120,112 110,117 100,112" />
		<polygon fill="#435363" points="120,120 130,115 140,120 140,132 130,137 120,132" />
		<polygon fill="#435363" points="140,100 150,95 160,100 160,112 150,117 140,112" />
		<polygon fill="#435363" points="160,120 170,115 180,120 180,132 170,137 160,132" />
		<polygon fill="#435363" points="180,100 190,95 200,100 200,112 190,117 180,112" />
		<polygon fill="#435363" points="200,120 210,115 220,120 220,132 210,137 200,132" />
		<polygon fill="#435363" points="220,100 230,95 240,100 240,112 230,117 220,112" />
		<polygon fill="#435363" points="240,120 250,115 260,120 260,132 250,137 240,132" />
		<polygon fill="#435363" points="260,100 270,95 280,100 280,112 270,117 260,112" />
		<polygon fill="#435363" points="280,120 290,115 300,120 300,132 290,137 280,132" />
		<polygon fill="#435363" points="300,100 310,95 320,100 320,112 310,117 300,112" />
		<polygon fill="#435363" points="320,120 330,115 340,120 340,132 330,137 320,132" />
		<polygon fill="#435363" points="340,100 350,95 360,100 360,112 350,117 340,112" />
		<polygon fill="#435363" points="360,120 370,115 380,120 380,132 370,137 360,132" />
		<polygon fill="#435363" points="380,100 390,95 400,100 400,112 390,117 380,112" />
		<polygon fill="#435363" points="400,120 410,115 420,120 420,132 410,137 400,132" />
		<polygon fill="#435363" points="420,100 430,95 440,100 440,112 430,117 420,112" />
		<polygon fill="#435363" points="440,120 450,115 460,120 460,132 450,137 440,132" />
		<polygon fill="#435363" points="460,100 470,95 480,100 480,112 470,117 460,112" />
		<polygon fill="#435363" points="460,140 470,135 480,140 480,152 470,157 460,152" />
		<polygon fill="#435363" points="420,140 430,135 440,140 440,152 430,157 420,152" />
		<polygon fill="#435363" points="380,140 390,135 400,140 400,152 390,157 380,152" />
		<polygon fill="#435363" points="340,140 350,135 360,140 360,152 350,157 340,152" />
		<polygon fill="#435363" points="300,140 310,135 320,140 320,152 310,157 300,152" />
		<polygon fill="#435363" points="260,140 270,135 280,140 280,152 270,157 260,152" />
		<polygon fill="#435363" points="220,140 230,135 240,140 240,152 230,157 220,152" />
		<polygon fill="#435363" points="180,140 190,135 200,140 200,152 190,157 180,152" />
		<polygon fill="#435363" points="140,140 150,135 160,140 160,152 150,157 140,152" />
		<polygon fill="#435363" points="100,140 110,135 120,140 120,152 110,157 100,152" />
		<polygon fill="#435363" points="60,140 70,135 80,140 80,152 70,157 60,152" />
		<polygon fill="#435363" points="40,160 50,155 60,160 60,172 50,177 40,172" />
		<polygon fill="#435363" points="80,160 90,155 100,160 100,172 90,177 80,172" />
		<polygon fill="#435363" points="120,160 130,155 140,160 140,172 130,177 120,172" />
		<polygon fill="#435363" points="160,160 170,155 180,160 180,172 170,177 160,172" />
		<polygon fill="#435363" points="200,160 210,155 220,160 220,172 210,177 200,172" />
		<polygon fill="#435363" points="240,160 250,155 260,160 260,172 250,177 240,172" />
		<polygon fill="#435363" points="280,160 290,155 300,160 300,172 290,177 280,172" />
		<polygon fill="#435363" points="320,160 330,155 340,160 340,172 330,177 320,172" />
		<polygon fill="#435363" points="360,160 370,155 380,160 380,172 370,177 360,172" />
		<polygon fill="#435363" points="400,160 410,155 420,160 420,172 410,177 400,172" />
		<polygon fill="#435363" points="440,160 450,155 460,160 460,172 450,177 440,172" />
		<polygon fill="#435363" points="460,180 470,175 480,180 480,192 470,197 460,192" />
		<polygon fill="#435363" points="420,180 430,175 440,180 440,192 430,197 420,192" />
		<polygon fill="#435363" points="380,180 390,175 400,180 400,192 390,197 380,192" />
		<polygon fill="#435363" points="340,180 350,175 360,180 360,192 350,197 340,192" />
		<polygon fill="#435363" points="300,180 310,175 320,180 320,192 310,197 300,192" />
		<polygon fill="#435363" points="260,180 270,175 280,180 280,192 270,197 260,192" />
		<polygon fill="#435363" points="220,180 230,175 240,180 240,192 230,197 220,192" />
		<polygon fill="#435363" points="180,180 190,175 200,180 200,192 190,197 180,192" />
		<polygon fill="#435363" points="140,180 150,175 160,180 160,192 150,197 140,192" />
		<polygon fill="#435363" points="100,180 110,175 120,180 120,192 110,197 100,192" />
		<polygon fill="#435363" points="60,180 70,175 80,180 80,192 70,197 60,192" />
		<polygon fill="#435363" points="20,140 30,135 40,140 40,152 30,157 20,152" />
		<polygon fill="#435363" points="20,180 30,175 40,180 40,192 30,197 20,192" />
		<polygon fill="#435363" points="460,220 470,215 480,220 480,232 470,237 460,232" />
		<polygon fill="#435363" points="420,220 430,215 440,220 440,232 430,237 420,232" />
		<polygon fill="#435363" points="380,220 390,215 400,220 400,232 390,237 380,232" />
		<polygon fill="#435363" points="340,220 350,215 360,220 360,232 350,237 340,232" />
		<polygon fill="#435363" points="300,220 310,215 320,220 320,232 310,237 300,232" />
		<polygon fill="#435363" points="260,220 270,215 280,220 280,232 270,237 260,232" />
		<polygon fill="#435363" points="220,220 230,215 240,220 240,232 230,237 220,232" />
		<polygon fill="#435363" points="180,220 190,215 200,220 200,232 190,237 180,232" />
		<polygon fill="#435363" points="140,220 150,215 160,220 160,232 150,237 140,232" />
		<polygon fill="#435363" points="100,220 110,215 120,220 120,232 110,237 100,232" />
		<polygon fill="#435363" points="60,220 70,215 80,220 80,232 70,237 60,232" />
		<polygon fill="#435363" points="20,220 30,215 40,220 40,232 30,237 20,232" />
		<polygon fill="#435363" points="40,200 50,195 60,200 60,212 50,217 40,212" />
		<polygon fill="#435363" points="80,200 90,195 100,200 100,212 90,217 80,212" />
		<polygon fill="#435363" points="120,200 130,195 140,200 140,212 130,217 120,212" />
		<polygon fill="#435363" points="160,200 170,195 180,200 180,212 170,217 160,212" />
		<polygon fill="#435363" points="200,200 210,195 220,200 220,212 210,217 200,212" />
		<polygon fill="#435363" points="240,200 250,195 260,200 260,212 250,217 240,212" />
		<polygon fill="#435363" points="280,200 290,195 300,200 300,212 290,217 280,212" />
		<polygon fill="#435363" points="320,200 330,195 340,200 340,212 330,217 320,212" />
		<polygon fill="#435363" points="360,200 370,195 380,200 380,212 370,217 360,212" />
		<polygon fill="#435363" points="400,200 410,195 420,200 420,212 410,217 400,212" />
		<polygon fill="#435363" points="440,200 450,195 460,200 460,212 450,217 440,212" />
	</g>
</svg>